<?xml version="1.0" standalone="no"?>
<!DOCTYPE svg PUBLIC "-//W3C//DTD SVG 20010904//EN"
 "http://www.w3.org/TR/2001/REC-SVG-20010904/DTD/svg10.dtd">
<svg version="1.0" xmlns="http://www.w3.org/2000/svg"
 width="1344.000000pt" height="1344.000000pt" viewBox="0 0 1344.000000 1344.000000"
 preserveAspectRatio="xMidYMid meet">
<metadata>
Created by potrace 1.14, written by Peter Selinger 2001-2017
</metadata>
<g transform="translate(0.000000,1344.000000) scale(0.100000,-0.100000)"
fill="#000000" stroke="none">
<path d="M9763 10680 c-677 -39 -1328 -195 -1768 -426 -533 -279 -879 -668
-1040 -1167 -153 -474 -152 -1132 2 -1610 106 -329 308 -630 573 -852 159
-132 449 -301 715 -416 202 -87 665 -233 1025 -324 75 -19 187 -50 250 -70
177 -56 353 -100 615 -155 590 -123 921 -255 1057 -422 88 -109 118 -199 120
-358 2 -225 -58 -358 -221 -488 -141 -112 -330 -186 -572 -223 -117 -18 -189
-22 -384 -23 -457 -1 -769 60 -1068 210 -174 88 -356 239 -445 371 -56 83
-124 223 -153 317 l-24 76 -933 0 -934 0 6 -37 c74 -483 161 -771 326 -1091
217 -419 533 -754 972 -1030 586 -368 1486 -569 2350 -524 995 52 1755 329
2267 827 453 441 650 926 668 1645 8 352 -21 600 -102 845 -162 492 -448 808
-966 1067 -215 107 -626 257 -924 337 -82 22 -226 61 -320 86 -93 25 -280 68
-415 95 -135 27 -303 67 -375 89 -71 21 -186 55 -255 75 -454 136 -729 240
-857 327 -214 145 -298 312 -273 542 16 138 63 233 167 334 120 115 265 182
503 232 187 38 306 51 480 51 716 0 1235 -307 1353 -799 l22 -91 892 0 c557 0
893 4 893 9 0 33 -35 266 -56 374 -112 575 -379 1073 -779 1455 -426 407
-1028 664 -1709 731 -155 15 -505 21 -683 11z"/>
<path d="M3847 7813 l-3 -2778 -22 -111 c-24 -127 -73 -286 -109 -359 -125
-249 -329 -374 -662 -406 -275 -26 -551 18 -730 117 -112 63 -246 215 -323
369 -74 146 -135 413 -146 635 l-7 135 -924 3 -924 2 7 -157 c28 -639 130
-1092 341 -1513 135 -269 323 -513 524 -681 459 -384 1036 -581 1841 -630 576
-35 1135 47 1561 229 409 175 753 467 981 834 174 281 323 713 383 1108 52
353 49 127 52 3168 l3 2812 -920 0 -920 0 -3 -2777z"/>
</g>
</svg>
